<?xml version="1.0" encoding="utf-8"?>
<!-- Generator: Adobe Illustrator 19.2.1, SVG Export Plug-In . SVG Version: 6.00 Build 0)  -->
<svg version="1.1" id="cinch_logo_color" xmlns="http://www.w3.org/2000/svg" xmlns:xlink="http://www.w3.org/1999/xlink" x="0px"
	 y="0px" viewBox="0 0 330 330" style="enable-background:new 0 0 330 330;" xml:space="preserve">
<style type="text/css">
	.st0{fill:#FFFFFF;}
</style>
<path class="st0" d="M150,168.7L150,168.7c0-10.6,8.1-19.5,19.3-19.5c6.9,0,11.3,2.6,14.8,6.4l-5.3,5.7c-2.6-2.7-5.3-4.6-9.5-4.6
	c-6.2,0-10.7,5.3-10.7,11.8v0.1c0,6.6,4.6,11.9,11.1,11.9c4,0,6.9-1.8,9.6-4.6l5.1,5.1c-3.6,4.1-7.9,6.9-15.2,6.9
	C158.1,187.9,150,179.3,150,168.7z"/>
<rect x="189.7" y="150" class="st0" width="8.5" height="37"/>
<path class="st0" d="M205.8,150h8.5v5.7c2.4-3.4,5.8-6.5,11.6-6.5c8.3,0,13.2,5.6,13.2,14.2V187h-8.5v-21c0-5.8-2.9-9-7.9-9
	c-4.9,0-8.3,3.4-8.3,9.2v20.9h-8.5V150H205.8z"/>
<path class="st0" d="M244.5,168.7L244.5,168.7c0-10.6,8.1-19.5,19.3-19.5c6.9,0,11.3,2.6,14.8,6.4l-5.3,5.7
	c-2.6-2.7-5.3-4.6-9.5-4.6c-6.2,0-10.7,5.3-10.7,11.8v0.1c0,6.6,4.6,11.9,11.1,11.9c4,0,6.9-1.8,9.6-4.6l5.1,5.1
	c-3.6,4.1-7.9,6.9-15.2,6.9C252.6,187.9,244.5,179.3,244.5,168.7z"/>
<path class="st0" d="M283.8,135.8h8.5v19.9c2.4-3.4,5.8-6.5,11.6-6.5c8.3,0,13.2,5.6,13.2,14.2V187h-8.5v-21c0-5.8-2.9-9-7.9-9
	c-4.9,0-8.3,3.4-8.3,9.2v20.9h-8.5v-51.3H283.8z"/>
<path class="st0" d="M132.8,164.2c0-35.3-27.6-64.2-62.4-66.3c0-5.3,0-9,0-9.5c0-2.3-1.9-3.9-4.2-3.9l0,0c-2.3,0-4.2,1.6-4.2,3.9
	c0,0.1,0,4.1,0,9.6c-34.5,2.3-62,31.1-62,66.2c0,35.2,27.5,64,62,66.2c0,5.6,0,10.2,0,10.3c0,2.3,1.9,4.7,4.2,4.7l0,0
	c2.3,0,4.2-2.4,4.2-4.7c0-0.5,0-4.7,0-10C105.2,228.7,132.8,199.5,132.8,164.2z M12.3,164.2c0-28.4,21.9-51.7,49.7-53.9
	c0,5.8,0,11.7,0,16.1c-5.6,1.2-11.5,3.6-16.4,7.5c-5.8,4.7-12.6,13.3-13.3,28.2v0.1c0,0.3,0,0.5,0,0.8c0,0.2,0,0.4,0,0.6
	c0,0.3,0,0.6,0,0.8c0,0.3,0,0.6,0,0.8c0,0.2,0,0.4,0,0.6c0,0.3,0,0.5,0,0.8v0.1c0.7,14.9,7.5,23.5,13.3,28.3
	c4.9,3.9,10.7,6.4,16.4,7.5c0,4.3,0,9.9,0,15.5C34.2,215.9,12.3,192.6,12.3,164.2z M70.5,218.1c0-5.3,0-10.6,0-14.8
	c2.4,0,4.7-0.3,6.6-0.8c7.3-1.9,12-5.1,14.4-9.8c3.3-6.5,1.2-14.9-4.6-18.4c-6-3.6-16.2-1.4-20.7,4.3c-3.4,4.4-4.1,10-4.2,15.2
	c-3.7-1-7.6-2.7-11.1-5.5c-6.6-5.3-10-13-10.2-23c0-0.3,0-0.7,0-1c0-0.3,0-0.7,0-1c0.2-10,3.6-17.7,10.2-23
	c3.5-2.8,7.4-4.5,11.1-5.5c0.1,5.2,0.8,10.8,4.2,15.2c4.5,5.7,14.7,7.9,20.7,4.3c5.8-3.5,7.9-11.9,4.6-18.4
	c-2.4-4.7-7.1-7.9-14.4-9.8c-2-0.5-4.2-0.8-6.6-0.8c0-4.3,0-9.7,0-15.1c27.9,2.1,50.1,25.5,50.1,53.9
	C120.5,192.7,98.4,216.1,70.5,218.1z M70.4,195c0-4.2,0.3-8.4,2.4-11.1c1.3-1.7,4.6-2.8,7.2-2.8c1,0,1.9,0.2,2.6,0.6
	c2,1.2,2.7,4.8,1.4,7.3c-1.3,2.4-4.2,4.3-9.1,5.5C73.7,194.8,72.2,195,70.4,195z M70.4,133.8c1.8,0,3.3,0.2,4.5,0.5
	c4.9,1.3,7.8,3.1,9.1,5.5c1.3,2.5,0.6,6.1-1.4,7.3c-2.3,1.4-7.9,0.1-9.8-2.3C70.7,142.2,70.4,138,70.4,133.8z"/>
<circle class="st0" cx="194.2" cy="140" r="5.2"/>
<g>
	<path class="st0" d="M321.2,146.1v4.7h-1.1v-4.7h-1.7v-0.9h4.4l0.2,0.9C323,146.1,321.2,146.1,321.2,146.1z"/>
	<path class="st0" d="M328.9,150.8l-0.3-4.1l-1.4,4.1h-1l-1.4-4.1l-0.3,4.1h-1l0.4-5.6h1.4l1.4,4.2l1.4-4.2h1.3l0.4,5.6H328.9z"/>
</g>
</svg>
