<?xml version="1.0" encoding="utf-8"?>
<!-- Generator: Adobe Illustrator 19.2.1, SVG Export Plug-In . SVG Version: 6.00 Build 0)  -->
<svg version="1.1" id="Layer_1" xmlns="http://www.w3.org/2000/svg" xmlns:xlink="http://www.w3.org/1999/xlink" x="0px" y="0px"
	 viewBox="0 0 2732 2732" style="enable-background:new 0 0 2732 2732;" xml:space="preserve">
<style type="text/css">
	.st0{fill:#5C47D2;}
	.st1{fill:#FFFFFF;}
</style>
<title>safe-area</title>
<desc>Created with Sketch.</desc>
<rect id="Background" x="1" class="st0" width="2732" height="2732"/>
<g>
	<path class="st1" d="M1667,1329.7v9.1h-2.1v-9.1h-3.3v-1.7h8.5l0.4,1.7C1670.5,1329.7,1667,1329.7,1667,1329.7z"/>
	<path class="st1" d="M1681.9,1338.7l-0.6-7.9l-2.7,7.9h-1.9l-2.7-7.9l-0.6,7.9h-1.9l0.8-10.8h2.7l2.7,8.1l2.7-8.1h2.5l0.8,10.8
		H1681.9z"/>
	<g>
		<path class="st1" d="M1337.3,1373.2L1337.3,1373.2c0-20.4,15.6-37.6,37.2-37.6c13.3,0,21.8,5,28.5,12.3l-10.2,11
			c-5-5.2-10.2-8.9-18.3-8.9c-11.9,0-20.6,10.2-20.6,22.7v0.2c0,12.7,8.9,22.9,21.4,22.9c7.7,0,13.3-3.5,18.5-8.9l9.8,9.8
			c-6.9,7.9-15.2,13.3-29.3,13.3C1352.9,1410.2,1337.3,1393.6,1337.3,1373.2z"/>
	</g>
	<rect x="1413.8" y="1337.2" class="st1" width="16.4" height="71.3"/>
	<path class="st1" d="M1444.8,1337.2h16.4v11c4.6-6.5,11.2-12.5,22.3-12.5c16,0,25.4,10.8,25.4,27.3v45.5h-16.4V1368
		c0-11.2-5.6-17.3-15.2-17.3c-9.4,0-16,6.5-16,17.7v40.3H1445v-71.5H1444.8z"/>
	<path class="st1" d="M1519.3,1373.2L1519.3,1373.2c0-20.4,15.6-37.6,37.2-37.6c13.3,0,21.8,5,28.5,12.3l-10.2,11
		c-5-5.2-10.2-8.9-18.3-8.9c-11.9,0-20.6,10.2-20.6,22.7v0.2c0,12.7,8.9,22.9,21.4,22.9c7.7,0,13.3-3.5,18.5-8.9l9.8,9.8
		c-6.9,7.9-15.2,13.3-29.3,13.3C1534.9,1410.2,1519.3,1393.6,1519.3,1373.2z"/>
	<path class="st1" d="M1595,1309.9h16.4v38.3c4.6-6.5,11.2-12.5,22.3-12.5c16,0,25.4,10.8,25.4,27.3v45.5h-16.4V1368
		c0-11.2-5.6-17.3-15.2-17.3c-9.4,0-16,6.5-16,17.7v40.3h-16.4v-98.8H1595z"/>
	<path class="st1" d="M1304.2,1364.6c0-68-53.2-123.7-120.2-127.7c0-10.2,0-17.3,0-18.3c0-4.4-3.7-7.5-8.1-7.5l0,0
		c-4.4,0-8.1,3.1-8.1,7.5c0,0.2,0,7.9,0,18.5c-66.4,4.4-119.4,59.9-119.4,127.5c0,67.8,53,123.3,119.4,127.5c0,10.8,0,19.6,0,19.8
		c0,4.4,3.7,9.1,8.1,9.1l0,0c4.4,0,8.1-4.6,8.1-9.1c0-1,0-9.1,0-19.3C1251,1488.8,1304.2,1432.5,1304.2,1364.6z M1072.1,1364.6
		c0-54.7,42.2-99.6,95.7-103.8c0,11.2,0,22.5,0,31c-10.8,2.3-22.1,6.9-31.6,14.4c-11.2,9.1-24.3,25.6-25.6,54.3v0.2c0,0.6,0,1,0,1.5
		c0,0.4,0,0.8,0,1.2c0,0.6,0,1.2,0,1.5c0,0.6,0,1.2,0,1.5c0,0.4,0,0.8,0,1.2c0,0.6,0,1,0,1.5v0.2c1.3,28.7,14.4,45.3,25.6,54.5
		c9.4,7.5,20.6,12.3,31.6,14.4c0,8.3,0,19.1,0,29.9C1114.3,1464.1,1072.1,1419.3,1072.1,1364.6z M1184.2,1468.4
		c0-10.2,0-20.4,0-28.5c4.6,0,9.1-0.6,12.7-1.5c14.1-3.7,23.1-9.8,27.7-18.9c6.4-12.5,2.3-28.7-8.9-35.4
		c-11.6-6.9-31.2-2.7-39.9,8.3c-6.5,8.5-7.9,19.3-8.1,29.3c-7.1-1.9-14.6-5.2-21.4-10.6c-12.7-10.2-19.3-25-19.6-44.3
		c0-0.6,0-1.3,0-1.9c0-0.6,0-1.3,0-1.9c0.4-19.3,6.9-34.1,19.6-44.3c6.7-5.4,14.3-8.7,21.4-10.6c0.2,10,1.5,20.8,8.1,29.3
		c8.7,11,28.3,15.2,39.9,8.3c11.2-6.7,15.2-22.9,8.9-35.4c-4.6-9.1-13.7-15.2-27.7-18.9c-3.9-1-8.1-1.5-12.7-1.5
		c0-8.3,0-18.7,0-29.1c53.7,4,96.5,49.1,96.5,103.8C1280.5,1419.4,1237.9,1464.5,1184.2,1468.4z M1184,1423.9
		c0-8.1,0.6-16.2,4.6-21.4c2.5-3.3,8.9-5.4,13.9-5.4c1.9,0,3.7,0.4,5,1.2c3.9,2.3,5.2,9.2,2.7,14.1c-2.5,4.6-8.1,8.3-17.5,10.6
		C1190.3,1423.5,1187.5,1423.9,1184,1423.9z M1184,1306c3.5,0,6.4,0.4,8.7,1c9.4,2.5,15,6,17.5,10.6c2.5,4.8,1.2,11.7-2.7,14.1
		c-4.4,2.7-15.2,0.2-18.9-4.4C1184.6,1322.2,1184,1314.1,1184,1306z"/>
	<circle class="st1" cx="1422.4" cy="1317.9" r="10"/>
</g>
</svg>
